<svg xmlns="http://www.w3.org/2000/svg" width="3100" height="1300" viewBox="0 0 3100 1300">
  <defs>
    <style>
      .cls-1 {
        fill: none;
        stroke: #fae1c3;
        stroke-linecap: round;
        stroke-width: 60px;
      }

      .cls-1, .cls-2 {
        fill-rule: evenodd;
      }

      .cls-2 {
        fill: #fae1c3;
      }
    </style>
  </defs>
  <path class="cls-1" d="M1210.47,967.048s334.7,240.672,679.81,0"/>
  <path id="book" class="cls-2" d="M796.96,880.76a296.191,296.191,0,0,0,58.891-13.946,231.662,231.662,0,0,0,52.121-25.84,166.59,166.59,0,0,0,41.86-40.2q17.851-24.2,27.907-56.807T987.794,668.3q0-51.68-14.364-88.6t-38.988-62.139a184.1,184.1,0,0,0-57.25-39.786,299.682,299.682,0,0,0-68.741-21.123V262.237a108.668,108.668,0,0,0-2.668-25.636,39.488,39.488,0,0,0-9.439-18.047q-6.771-7.172-18.263-10.869t-29.138-3.691H569.19q-19.7,0-32.011,3.691t-19.288,10.664a35.732,35.732,0,0,0-9.439,17.842,112.9,112.9,0,0,0-2.463,24.815V669.527q0,51.679,15.595,91.876t45.144,67.471q29.549,27.282,72.229,41.632T735.4,884.861A466.307,466.307,0,0,0,796.96,880.76Zm11.491-371.606q32.01,4.1,54.788,17.636a121.051,121.051,0,0,1,37.551,34.454q14.774,20.919,21.751,48.4a237.816,237.816,0,0,1,6.976,58.653,234.6,234.6,0,0,1-6.976,58.653A147.766,147.766,0,0,1,901,774.938a115.924,115.924,0,0,1-37.551,34.248q-22.989,13.334-54.993,17.432V509.154ZM1338.86,887.322a305.739,305.739,0,0,0,58.08-12.92,216.368,216.368,0,0,0,52.73-25.635,173.44,173.44,0,0,0,43.3-41.631q18.66-25.226,29.34-60.7t10.67-83.058q0-46.344-10.87-80.6-10.89-34.244-29.55-58.859a167.033,167.033,0,0,0-43.5-40.4,235.02,235.02,0,0,0-52.95-25.019,295.276,295.276,0,0,0-57.86-12.715,499.859,499.859,0,0,0-58.07-3.487,389.315,389.315,0,0,0-61.56,4.922,289.791,289.791,0,0,0-58.89,15.791,232.908,232.908,0,0,0-52.33,28.3,182.312,182.312,0,0,0-42.06,42.451q-17.865,25.023-28.12,58.038t-10.26,74.854q0,42.664,10.26,75.675t28.12,58.038a178.616,178.616,0,0,0,42.06,42.247,231.259,231.259,0,0,0,52.33,27.891,298.416,298.416,0,0,0,58.89,15.586,389.315,389.315,0,0,0,61.56,4.922A479.583,479.583,0,0,0,1338.86,887.322Zm41.25-98.849q-12.525-4.095-21.96-17.226T1342.97,733.1q-5.76-25.014-5.75-66.447t6.98-66.241q6.975-24.811,17.44-38.145t22.57-17.431a69.2,69.2,0,0,1,21.96-4.1,62.487,62.487,0,0,1,25.03,5.332q12.315,5.336,22.16,19.073t15.8,37.529q5.955,23.793,5.96,60.7,0,38.971-5.96,64.19-5.94,25.226-15.59,39.581t-22.16,19.893a61.921,61.921,0,0,1-25.24,5.537A83.05,83.05,0,0,1,1380.11,788.473Zm507.41,98.849a305.638,305.638,0,0,0,58.07-12.92,216.192,216.192,0,0,0,52.73-25.635,173.271,173.271,0,0,0,43.3-41.631q18.675-25.226,29.34-60.7t10.67-83.058q0-46.344-10.87-80.6t-29.55-58.859a166.875,166.875,0,0,0-43.5-40.4,235.151,235.151,0,0,0-52.94-25.019,295.373,295.373,0,0,0-57.87-12.715,499.859,499.859,0,0,0-58.07-3.487,389.315,389.315,0,0,0-61.56,4.922,289.966,289.966,0,0,0-58.89,15.791,233.125,233.125,0,0,0-52.33,28.3,182.507,182.507,0,0,0-42.06,42.451q-17.85,25.023-28.11,58.038-10.275,33.021-10.26,74.854,0,42.664,10.26,75.675,10.245,33.021,28.11,58.038a178.8,178.8,0,0,0,42.06,42.247,231.471,231.471,0,0,0,52.33,27.891,298.6,298.6,0,0,0,58.89,15.586,389.315,389.315,0,0,0,61.56,4.922A479.868,479.868,0,0,0,1887.52,887.322Zm41.24-98.849q-12.525-4.095-21.95-17.226-9.45-13.122-15.19-38.145t-5.74-66.447q0-41.423,6.97-66.241t17.44-38.145q10.47-13.323,22.58-17.431a69.148,69.148,0,0,1,21.95-4.1,62.57,62.57,0,0,1,25.04,5.332q12.3,5.336,22.16,19.073,9.84,13.746,15.8,37.529,5.94,23.793,5.95,60.7,0,38.971-5.95,64.19t-15.6,39.581q-9.645,14.363-22.16,19.893a61.921,61.921,0,0,1-25.24,5.537A83.05,83.05,0,0,1,1928.76,788.473Zm211.52,31.173a112.271,112.271,0,0,0,2.46,25.019,35.545,35.545,0,0,0,9.44,17.637q6.975,6.98,19.29,10.665t32.01,3.691h172.36q20.52,0,33.65-3.486t20.52-10.665a36.661,36.661,0,0,0,10.06-17.636,99.309,99.309,0,0,0,2.67-24.4V648.608q19.7,0.828,33.03,4.307t21.55,11.074q8.2,7.594,11.7,20.1,3.48,12.518,3.48,31.378V857.38a28.956,28.956,0,0,0,3.08,13.126q3.075,6.152,13.75,6.152h26.27a66.375,66.375,0,0,0,7.38-.41,13.593,13.593,0,0,0,6.36-2.256,14.068,14.068,0,0,0,4.52-5.742q1.845-3.894,1.84-10.87V719.566q0-28.3-6.36-49.629t-20.72-35.684q-14.37-14.354-37.76-21.944t-57.45-8.818l128.45-94.748q6.975-5.325,10.06-9.843a15.914,15.914,0,0,0,3.07-9.024q0-4.921-4.51-10.254l-20.52-21.328q-5.34-6.153-12.72-6.153a18.231,18.231,0,0,0-7.39,1.846,30.153,30.153,0,0,0-8.62,6.357l-98.49,97.619V261.826a123.155,123.155,0,0,0-2.26-24.814,36.218,36.218,0,0,0-8.82-17.842q-6.57-6.97-18.06-10.665t-30.37-3.691H2203.48q-19.71,0-32.01,3.691t-19.29,10.665a35.69,35.69,0,0,0-9.44,17.842,113.02,113.02,0,0,0-2.46,24.814v557.82Z"/>
</svg>
