<svg id="Layer_1" data-name="Layer 1" xmlns="http://www.w3.org/2000/svg" viewBox="0 0 1920 635">
  <defs>
    <style>
      .cls-1 {
        fill: #fae1c3;
        fill-rule: evenodd;
      }
    </style>
  </defs>
  <g id="Artboard_1_copy" data-name="Artboard 1 copy">
    <path id="Terio" class="cls-1" d="M182.65,487.12a80,80,0,0,0,1.78,18,26.18,26.18,0,0,0,6.64,12.7q4.88,5,13.59,7.68t22.59,2.65H359q13.31,0,21.86-2.51T394.27,518a27.07,27.07,0,0,0,6.64-12.69,76.93,76.93,0,0,0,1.77-17.58V147.18q19.2,4.14,35.45,7.38,7.08,1.49,14,2.66l13.14,2.22q6.21,1,10.94,1.62a62.91,62.91,0,0,0,7.38.59,16.87,16.87,0,0,0,8.42-1.92q3.39-1.92,3.39-7.83V118.83q0-5.61-4.72-10.19t-14.77-4.58H109.41q-10.05,0-14.77,4.58t-4.73,10.19v33.08c0,3.94,1.14,6.55,3.4,7.82a16.76,16.76,0,0,0,8.42,1.92,64.84,64.84,0,0,0,7.23-.59q4.89-.59,11.08-1.62l13.14-2.22q6.94-1.17,14-2.66,16.24-3.24,35.44-7.38ZM740,475.6a44.75,44.75,0,0,1-17-12.25q-7.82-8.72-13.88-23.34t-8.41-36.47H823c4.13,0,7.09-1,8.86-3s2.66-4.73,2.66-8.27V375.78q0-44.59-13.3-75.32t-36.61-49.61q-23.34-18.9-55.09-27.18t-68.67-8.27a280.83,280.83,0,0,0-44.29,3.54,208,208,0,0,0-42.39,11.38,167.28,167.28,0,0,0-37.66,20.38,131.11,131.11,0,0,0-30.27,30.57A146,146,0,0,0,486,323.06q-7.38,23.78-7.38,53.9,0,30.72,7.38,54.49a145.93,145.93,0,0,0,20.23,41.79,129,129,0,0,0,30.27,30.42,166.6,166.6,0,0,0,37.66,20.08A214.68,214.68,0,0,0,616.52,535a280.83,280.83,0,0,0,44.29,3.54,293.22,293.22,0,0,0,52-4.28,286.4,286.4,0,0,0,42.38-10.78,211.34,211.34,0,0,0,32.93-14.33A271.12,271.12,0,0,0,812,494.5a22.14,22.14,0,0,0,2.37-2.06,4.43,4.43,0,0,0,1.18-3.25,8.23,8.23,0,0,0-1.48-4.14L803.76,469.1a15.26,15.26,0,0,0-2.51-3.25,5.79,5.79,0,0,0-3.69-.88c-1.18,0-2.91.74-5.17,2.21s-5.13,3.1-8.57,4.88a87.48,87.48,0,0,1-11.66,4.87,44.47,44.47,0,0,1-14.48,2.21A48.72,48.72,0,0,1,740,475.6ZM699.5,367.21q.88-26.58,5.77-42.53t11.8-24.51Q724,291.6,732,289a46.81,46.81,0,0,1,14.77-2.66,41.83,41.83,0,0,1,17.58,3.84q8.4,3.84,14.61,13.14t9.89,24.81q3.71,15.5,3.7,39.13ZM877.3,487.12a81.25,81.25,0,0,0,1.77,18,25.7,25.7,0,0,0,6.8,12.7q5,5,13.88,7.68t23,2.65h124q16.23,0,25.7-2.65t14.47-7.83a24.65,24.65,0,0,0,6.49-13,97.76,97.76,0,0,0,1.48-18.16V337.09l97.47-75.61a23.34,23.34,0,0,0,6-6.64,12.76,12.76,0,0,0-2.51-16.4l-13.29-13.88a18.13,18.13,0,0,0-4.28-3.1,12.17,12.17,0,0,0-5.77-1.33q-5.6,0-12.11,6.21L1095,290.13V268.27a93.58,93.58,0,0,0-1.63-18.6,28,28,0,0,0-6.34-13.29,28.64,28.64,0,0,0-13-8q-8.28-2.67-21.85-2.66H922.79q-14.17,0-23,2.66t-13.88,7.67a25.71,25.71,0,0,0-6.79,12.85,81.3,81.3,0,0,0-1.78,17.87V487.13Zm328.13,0a80.6,80.6,0,0,0,1.77,18,25.7,25.7,0,0,0,6.8,12.7q5,5,13.88,7.68t23,2.65h129.36q13.58,0,22-2.51t13.14-7.68a25.69,25.69,0,0,0,6.2-12.69,91.74,91.74,0,0,0,1.48-17.58V266.8a97.83,97.83,0,0,0-1.48-18.32,25,25,0,0,0-6.2-12.7q-4.73-5-13.14-7.53t-22-2.51H1250.92q-14.19,0-23,2.66T1214,236.07a25.8,25.8,0,0,0-6.8,12.85,81.29,81.29,0,0,0-1.77,17.87Zm18.75-349.83a99.34,99.34,0,0,0,52.43,52.27,95.33,95.33,0,0,0,38.4,7.83,93.47,93.47,0,0,0,37.94-7.83,99.72,99.72,0,0,0,52.28-52.27,93.75,93.75,0,0,0,7.83-38,95.45,95.45,0,0,0-7.83-38.39A99.32,99.32,0,0,0,1353,8.52a93.42,93.42,0,0,0-38-7.83,95.33,95.33,0,0,0-38.4,7.83,98.9,98.9,0,0,0-52.43,52.42,95.45,95.45,0,0,0-7.83,38.39,93.75,93.75,0,0,0,7.83,38Zm466.21,398.56a219.7,219.7,0,0,0,41.79-9.3,155.76,155.76,0,0,0,38-18.46,124.75,124.75,0,0,0,31.15-30q13.44-18.16,21.13-43.71t7.68-59.8q0-33.37-7.83-58T1801,274.18a120.1,120.1,0,0,0-31.3-29.09,169.07,169.07,0,0,0-38.11-18,211.73,211.73,0,0,0-41.63-9.16,358.23,358.23,0,0,0-41.8-2.51,279.68,279.68,0,0,0-44.3,3.54,208.58,208.58,0,0,0-42.38,11.37,168.08,168.08,0,0,0-37.66,20.38,131.73,131.73,0,0,0-30.28,30.57,145.93,145.93,0,0,0-20.23,41.79q-7.38,23.78-7.37,53.9,0,30.72,7.37,54.49a145.93,145.93,0,0,0,20.23,41.79,128.61,128.61,0,0,0,30.28,30.42,166.24,166.24,0,0,0,37.66,20.09A214,214,0,0,0,1603.85,535a280.87,280.87,0,0,0,44.3,3.55,346.81,346.81,0,0,0,42.24-2.7Zm29.68-71.17q-9-3-15.8-12.41t-10.93-27.47q-4.14-18-4.14-47.84t5-47.7q5-17.86,12.56-27.47T1723,289.24a49.83,49.83,0,0,1,15.8-2.95,44.83,44.83,0,0,1,18,3.84q8.85,3.84,16,13.73t11.36,27q4.29,17.14,4.29,43.72,0,28-4.29,46.22t-11.22,28.5Q1766,459.67,1757,463.64a44.68,44.68,0,0,1-18.17,4,60,60,0,0,1-18.75-2.95Z"/>
    <path id="tats" class="cls-1" d="M1534.75,96.1V121q0,7.26,2.11,11.49a14.69,14.69,0,0,0,5.87,6.37,23.26,23.26,0,0,0,8.91,2.75,94.11,94.11,0,0,0,11.13.6,74.89,74.89,0,0,0,8.33-.47q4.17-.48,7.92-1.26t7-1.8c2.16-.67,4-1.35,5.65-2a3.17,3.17,0,0,0,.88-.57,2.19,2.19,0,0,0,.5-1.7v-4.86a.66.66,0,0,0-.48-.8h0a.54.54,0,0,0-.18,0,3.84,3.84,0,0,0-.95.15c-.38.11-.79.21-1.22.32l-1.43.32a7.07,7.07,0,0,1-1.45.15,5.47,5.47,0,0,1-4.57-1.83c-1-1.22-1.49-3.32-1.49-6.31V96.1h11.36a1.2,1.2,0,0,0,1.34-1,1,1,0,0,0,0-.34v-5a1.18,1.18,0,0,0-1-1.33h0a1.82,1.82,0,0,0-.33,0h-11.36v-29a3.73,3.73,0,0,0-.31-1.61,3,3,0,0,0-.79-1,2.7,2.7,0,0,0-1-.54,3.73,3.73,0,0,0-1-.16,10.48,10.48,0,0,0-2.78.44c-1.05.3-2.37.74-4,1.33l-34.84,12.87a2.41,2.41,0,0,0-1.55,1.45,6.83,6.83,0,0,0-.28,1.9V88.33h-6.56a1.18,1.18,0,0,0-1.33,1h0a1,1,0,0,0,0,.34v5a1.21,1.21,0,0,0,1,1.39h6.92ZM1663.68,140a18.52,18.52,0,0,0,4.92-.54,6.65,6.65,0,0,0,3-1.61,5.47,5.47,0,0,0,1.45-2.68,16.34,16.34,0,0,0,.38-3.69V103.35a40.43,40.43,0,0,0-1.33-11,23,23,0,0,0-3.75-7.76,19.7,19.7,0,0,0-5.75-5.08,28.86,28.86,0,0,0-7.32-3,46.27,46.27,0,0,0-8.51-1.35c-3-.21-6.1-.32-9.25-.32a60,60,0,0,0-9.65.76,68.19,68.19,0,0,0-8.68,2,53.22,53.22,0,0,0-7.22,2.72,36,36,0,0,0-5.31,3,6,6,0,0,0-.78.64,1.11,1.11,0,0,0-.42.88,1.57,1.57,0,0,0,.32,1l2.14,3.4a1.35,1.35,0,0,0,1.08.82,1.18,1.18,0,0,0,.63-.18l.69-.45c.55-.33,1.22-.71,2-1.13a26.67,26.67,0,0,1,2.52-1.17,22.13,22.13,0,0,1,2.75-.91,10.09,10.09,0,0,1,2.68-.38,11.27,11.27,0,0,1,2.24.22,4.92,4.92,0,0,1,3.76,3.12,10,10,0,0,1,.63,3.91v4.35a44.27,44.27,0,0,0-9.41,1.77,26.34,26.34,0,0,0-8,4,19.22,19.22,0,0,0-5.59,6.5,19.74,19.74,0,0,0-2.08,9.4,21.34,21.34,0,0,0,1.14,7.26,17.71,17.71,0,0,0,3.12,5.49,18.05,18.05,0,0,0,4.7,3.91,28.84,28.84,0,0,0,5.83,2.56,39,39,0,0,0,6.58,1.42,53.93,53.93,0,0,0,6.84.44Zm-36.79-8.08a24.7,24.7,0,0,1-7.64-1,13.19,13.19,0,0,1-5-2.78,10.05,10.05,0,0,1-2.72-4.13,15.19,15.19,0,0,1-.82-5,16.6,16.6,0,0,1,.82-5.14,10.91,10.91,0,0,1,2.72-4.39,13.46,13.46,0,0,1,5-3,22.53,22.53,0,0,1,7.64-1.14Zm60.2-35.84V121q0,7.26,2.11,11.49a14.69,14.69,0,0,0,5.87,6.37,23.26,23.26,0,0,0,8.91,2.75,94.11,94.11,0,0,0,11.13.6,74.89,74.89,0,0,0,8.33-.47q4.17-.48,7.92-1.26t7-1.8c2.16-.67,4-1.35,5.65-2a3.17,3.17,0,0,0,.88-.57,2.19,2.19,0,0,0,.5-1.7v-4.86a.68.68,0,0,0-.51-.81.54.54,0,0,0-.18,0,4.24,4.24,0,0,0-1,.15c-.38.11-.78.21-1.22.32l-1.42.32a7.16,7.16,0,0,1-1.46.15,5.47,5.47,0,0,1-4.57-1.83q-1.5-1.83-1.49-6.31V96.1H1745a1.2,1.2,0,0,0,1.34-1,1,1,0,0,0,0-.34v-5a1.18,1.18,0,0,0-1-1.33h0a1.82,1.82,0,0,0-.33,0H1733.6v-29a3.73,3.73,0,0,0-.31-1.61,2.85,2.85,0,0,0-1.81-1.58,3.37,3.37,0,0,0-1-.16,10.48,10.48,0,0,0-2.78.44c-1,.3-2.37.74-4,1.33l-34.83,12.87a2.35,2.35,0,0,0-1.54,1.45,6.49,6.49,0,0,0-.29,1.9V88.33h-6.56a1.17,1.17,0,0,0-1.32,1v0a1,1,0,0,0,0,.34v5a1.2,1.2,0,0,0,1,1.38h0a1,1,0,0,0,.35,0h6.56ZM1790,74a34.92,34.92,0,0,0-9.5,2.72,20.9,20.9,0,0,0-7,5.14,15.07,15.07,0,0,0-3.53,8l-4.42,30.42a12.64,12.64,0,0,1-1.86,5.49,9,9,0,0,1-3.15,2.91,10.72,10.72,0,0,1-3.91,1.16,39.39,39.39,0,0,1-4.2.22,1.61,1.61,0,0,0-1.14.32,1.73,1.73,0,0,0-.44.82l-.76,3.53c-.08.3-.15.55-.19.76a5.51,5.51,0,0,0-.06.57.85.85,0,0,0,.28.72,2.15,2.15,0,0,0,.79.35c1,.34,2.43.79,4.39,1.36s4.24,1.13,6.88,1.7,5.5,1,8.61,1.45a75.11,75.11,0,0,0,9.6.61,55.55,55.55,0,0,0,13.66-1.49,32.36,32.36,0,0,0,9.81-4.07,19.38,19.38,0,0,0,6.09-6,18.1,18.1,0,0,0,2.62-7.32l3.53-29.47q.57-4.8,2.66-6.72a8,8,0,0,1,5.67-1.93,9.18,9.18,0,0,1,1.89.19,7,7,0,0,0,1.2.19.67.67,0,0,0,.41-.16,1.55,1.55,0,0,0,.36-.91l.75-3.73.12-.63a2.74,2.74,0,0,0,.07-.5,1.11,1.11,0,0,0-.35-1,3.33,3.33,0,0,0-.66-.38,37.17,37.17,0,0,0-4.89-1.79q-3-.91-6.63-1.68a74.57,74.57,0,0,0-7.7-1.18,70.18,70.18,0,0,0-8.07-.47A74,74,0,0,0,1790,74Z"/>
  </g>
</svg>
