<svg id="Layer_1" data-name="Layer 1" xmlns="http://www.w3.org/2000/svg" viewBox="0 0 100 100">
  <defs>
    <style>
      .cls-1 {
        fill: #f99c19;
      }

      .cls-2 {
        fill: #f9e2c3;
      }
    </style>
  </defs>
  <g id="Layer_2" data-name="Layer 2">
    <circle class="cls-1" cx="49.59" cy="50.24" r="46.86"/>
  </g>
  <path class="cls-2" d="M53.75,31.5h-7.5V54.25L37,45l-5.25,5.25L50,68.5,68.25,50.25,63,45l-9.25,9.25ZM50,0A48.27,48.27,0,0,1,69.37,3.94,50.39,50.39,0,0,1,96.06,30.62,48.53,48.53,0,0,1,100,50a48.82,48.82,0,0,1-3.94,19.5A50.09,50.09,0,0,1,85.31,85.37,51.26,51.26,0,0,1,69.37,96.06,48.44,48.44,0,0,1,50,100a48.75,48.75,0,0,1-19.5-3.94A49.89,49.89,0,0,1,3.94,69.5,48.65,48.65,0,0,1,0,50,48.36,48.36,0,0,1,3.94,30.62,51.13,51.13,0,0,1,14.62,14.69,50,50,0,0,1,30.5,3.94,48.58,48.58,0,0,1,50,0Zm0,7.5A40.92,40.92,0,0,0,19.87,19.94,41,41,0,0,0,7.5,50,41,41,0,0,0,19.87,80.12,41,41,0,0,0,50,92.5,41.06,41.06,0,0,0,80.06,80.12,40.9,40.9,0,0,0,92.5,50,41,41,0,0,0,80.06,19.94,41,41,0,0,0,50,7.5Z" transform="translate(0 0)"/>
</svg>
